<?xml version="1.0" encoding="utf-8"?>
<!-- Generator: Adobe Illustrator 15.1.0, SVG Export Plug-In . SVG Version: 6.00 Build 0)  -->
<!DOCTYPE svg PUBLIC "-//W3C//DTD SVG 1.1//EN" "http://www.w3.org/Graphics/SVG/1.1/DTD/svg11.dtd">
<svg version="1.1" id="Layer_1" xmlns="http://www.w3.org/2000/svg" xmlns:xlink="http://www.w3.org/1999/xlink" x="0px" y="0px"
	 width="150px" height="150px" viewBox="0 0 150 150" enable-background="new 0 0 150 150" xml:space="preserve">
<g>
	<g>
		<line fill="none" stroke="#FFFFFF" stroke-width="3" stroke-miterlimit="10" x1="89.312" y1="20.157" x2="99.188" y2="20.157"/>
		<line fill="none" stroke="#FFFFFF" stroke-width="3" stroke-miterlimit="10" x1="104.612" y1="20.157" x2="114.484" y2="20.157"/>
		<line fill="none" stroke="#FFFFFF" stroke-width="3" stroke-miterlimit="10" x1="101.895" y1="17.447" x2="101.895" y2="7.58"/>
		<line fill="none" stroke="#FFFFFF" stroke-width="3" stroke-miterlimit="10" x1="101.895" y1="22.869" x2="101.895" y2="32.743"/>
	</g>
	<g>
		<line fill="none" stroke="#FFFFFF" stroke-width="3" stroke-miterlimit="10" x1="3.128" y1="102.17" x2="13" y2="102.17"/>
		<line fill="none" stroke="#FFFFFF" stroke-width="3" stroke-miterlimit="10" x1="18.423" y1="102.17" x2="28.3" y2="102.17"/>
		<line fill="none" stroke="#FFFFFF" stroke-width="3" stroke-miterlimit="10" x1="15.701" y1="99.457" x2="15.701" y2="89.584"/>
		<line fill="none" stroke="#FFFFFF" stroke-width="3" stroke-miterlimit="10" x1="15.701" y1="104.88" x2="15.701" y2="114.749"/>
	</g>
	<g>
		<line fill="none" stroke="#FFFFFF" stroke-width="3" stroke-miterlimit="10" x1="98.39" y1="128.599" x2="108.27" y2="128.599"/>
		
			<line fill="none" stroke="#FFFFFF" stroke-width="3" stroke-miterlimit="10" x1="113.688" y1="128.599" x2="123.57" y2="128.599"/>
		
			<line fill="none" stroke="#FFFFFF" stroke-width="3" stroke-miterlimit="10" x1="110.973" y1="125.891" x2="110.973" y2="116.018"/>
		
			<line fill="none" stroke="#FFFFFF" stroke-width="3" stroke-miterlimit="10" x1="110.973" y1="131.305" x2="110.973" y2="141.183"/>
	</g>
	<g>
		<polygon fill="#FFFFFF" points="70.906,111.014 88.098,115.654 70.906,120.274 66.285,137.461 61.66,120.274 44.473,115.654 
			61.66,111.014 66.285,93.834 		"/>
	</g>
	<g>
		<polygon fill="#FFFFFF" points="60.099,34.511 87.967,42.009 60.099,49.514 52.587,77.392 45.093,49.514 17.209,42.009 
			45.093,34.511 52.587,6.628 		"/>
	</g>
	<g>
		<polygon fill="#FFFFFF" points="124.101,65.007 145.073,72.166 124.101,79.326 116.953,100.291 109.79,79.326 88.835,72.166 
			109.784,65.007 116.953,44.045 		"/>
	</g>
</g>
</svg>
