<?xml version="1.0" encoding="UTF-8"?>
<svg xmlns="http://www.w3.org/2000/svg" version="1.1" xmlns:xlink="http://www.w3.org/1999/xlink" viewBox="0 0 113 112">
  <defs>
    <style>
      .cls-1 {
        fill: #fff;
      }

      .cls-2 {
        fill: none;
      }

      .cls-3 {
        clip-path: url(#clippath);
      }
    </style>
    <clipPath id="clippath">
      <rect class="cls-2" y=".2" width="113.1" height="111.8"/>
    </clipPath>
  </defs>
  <!-- Generator: Adobe Illustrator 28.7.1, SVG Export Plug-In . SVG Version: 1.2.0 Build 142)  -->
  <g>
    <g id="Layer_1">
      <g class="cls-3">
        <g>
          <path class="cls-1" d="M86.5,17.2c-.5,0-.9,0-1.4,0-14.9,0-29.9,0-44.8,0-4.3,0-7.5,1.8-9.5,5.6-2.4,4.4-4.9,8.8-7.2,13.2-.5,1-1.1,1.2-2.1,1.2-3.1,0-6.2,0-9.3,0-6.4,0-10.6,4.2-10.6,10.6,0,12.9,0,25.9,0,38.8,0,.9,0,1.8.2,2.6,1,4.9,5,8,10.3,8,6.2,0,12.4,0,18.6,0,13.4,0,26.8,0,40.2,0,6.3,0,10.6-4.2,10.6-10.4,0-13.1,0-26.2,0-39.3,0-4.6-2.4-8.1-6.7-9.7-.6-.2-.8-.5-.8-1.2,0-2.9,0-5.7,0-8.6,0-.3,0-.5.1-.9h12.3v-9.9ZM111.5,42.2c-2.2,0-4.3,0-6.3,0-.6,0-1.3.3-1.7.7-3.7,3.6-7.4,7.3-11.1,11.1-.4.4-.7,1.2-.7,1.7,0,9.3,0,18.6,0,27.9,0,.6.3,1.3.7,1.7,3.3,3.4,6.7,6.6,9.9,10,1.3,1.3,2.5,2,4.3,1.8,1.6-.2,3.2,0,4.9,0v-55ZM95.5,14.7c-1.8,0-3.5,0-5.3,0-1.6,0-2.4.9-2.4,2.5,0,3.3,0,6.6,0,9.9,0,1.6.9,2.5,2.5,2.6,3.4,0,6.8.1,10.3,0,4.2-.2,7.2-3.4,7.2-7.5,0-4.2-3.2-7.3-7.5-7.4-1.6,0-3.2,0-4.8,0ZM90.1,84.7v-29.8h-7.2v29.8h7.2Z"/>
          <path class="cls-1" d="M86.5,17.2v9.9h-12.3c0,.4-.1.6-.1.9,0,2.9,0,5.7,0,8.6,0,.7.2,1,.8,1.2,4.3,1.7,6.7,5.1,6.7,9.7,0,13.1,0,26.2,0,39.3,0,6.2-4.3,10.4-10.6,10.4-13.4,0-26.8,0-40.2,0-6.2,0-12.4,0-18.6,0-5.3,0-9.3-3.1-10.3-8-.2-.8-.2-1.7-.2-2.6,0-12.9,0-25.9,0-38.8,0-6.4,4.2-10.6,10.6-10.6,3.1,0,6.2,0,9.3,0,1,0,1.6-.3,2.1-1.2,2.4-4.4,4.8-8.8,7.2-13.2,2.1-3.8,5.2-5.6,9.5-5.6,14.9,0,29.9,0,44.8,0,.4,0,.9,0,1.4,0ZM34.3,37.1h29.7c0-3.1,0-6.1,0-9.2,0-.8-.5-.8-1-.8-7.5,0-15,0-22.4,0-.4,0-1,.4-1.3.8-.9,1.6-1.8,3.2-2.7,4.8-.8,1.4-1.5,2.8-2.4,4.3Z"/>
          <path class="cls-1" d="M111.5,42.2v55c-1.6,0-3.3-.1-4.9,0-1.8.2-3.1-.5-4.3-1.8-3.2-3.4-6.6-6.7-9.9-10-.4-.4-.7-1.1-.7-1.7,0-9.3,0-18.6,0-27.9,0-.6.3-1.3.7-1.7,3.6-3.7,7.3-7.4,11.1-11.1.4-.4,1.1-.7,1.7-.7,2.1,0,4.1,0,6.3,0Z"/>
          <path class="cls-1" d="M95.5,14.7c1.6,0,3.2,0,4.8,0,4.3,0,7.4,3.2,7.5,7.4,0,4.2-2.9,7.4-7.2,7.5-3.4.1-6.8,0-10.3,0-1.6,0-2.5-.9-2.5-2.6,0-3.3,0-6.6,0-9.9,0-1.6.9-2.4,2.4-2.5,1.7,0,3.5,0,5.3,0Z"/>
          <path class="cls-1" d="M90.1,84.7h-7.2v-29.8h7.2v29.8Z"/>
          <path class="cls-1" d="M34.3,37.1c.8-1.5,1.6-2.9,2.4-4.3.9-1.6,1.7-3.2,2.7-4.8.2-.4.8-.8,1.3-.8,7.5,0,15,0,22.4,0,.6,0,1,0,1,.8,0,3,0,6,0,9.2h-29.7Z"/>
        </g>
      </g>
    </g>
  </g>
</svg>