<?xml version="1.0" encoding="UTF-8"?>
<svg xmlns="http://www.w3.org/2000/svg" version="1.1" xmlns:xlink="http://www.w3.org/1999/xlink" viewBox="0 0 113 112">
  <defs>
    <style>
      .cls-1, .cls-2 {
        fill: none;
      }

      .cls-2 {
        stroke: #fff;
        stroke-linejoin: round;
        stroke-width: 2px;
      }

      .cls-3 {
        clip-path: url(#clippath);
      }
    </style>
    <clipPath id="clippath">
      <rect class="cls-1" x="0" y=".1" width="113.1" height="111.8"/>
    </clipPath>
  </defs>
  <!-- Generator: Adobe Illustrator 28.7.1, SVG Export Plug-In . SVG Version: 1.2.0 Build 142)  -->
  <g>
    <g id="Layer_1">
      <g id="Layer_1-2" data-name="Layer_1">
        <g class="cls-3">
          <g>
            <path class="cls-2" d="M111.4,42.3v55c-1.6,0-3.3,0-4.9,0-1.8.2-3.1-.5-4.3-1.8-3.2-3.4-6.6-6.7-9.9-10s-.7-1.1-.7-1.7v-27.9c0-.6.3-1.3.7-1.7,3.6-3.7,7.3-7.4,11.1-11.1.4-.4,1.1-.7,1.7-.7h6.3Z"/>
            <path class="cls-2" d="M95.4,14.8h4.8c4.3,0,7.4,3.2,7.5,7.4,0,4.2-2.9,7.4-7.2,7.5-3.4.1-6.8,0-10.3,0s-2.5-.9-2.5-2.6v-9.9c0-1.6.9-2.4,2.4-2.5h5.3,0Z"/>
            <path class="cls-2" d="M90,84.8h-7.2v-29.8h7.2v29.8Z"/>
            <path class="cls-2" d="M86.4,17.3v9.9h-12.3c0,.4,0,.6,0,.9v8.6c0,.7.2,1,.8,1.2,4.3,1.7,6.7,5.1,6.7,9.7v39.3c0,6.2-4.3,10.4-10.6,10.4H12.1c-5.3,0-9.3-3.1-10.3-8-.2-.8-.2-1.7-.2-2.6v-38.8c0-6.4,4.2-10.6,10.6-10.6h9.3c1,0,1.6-.3,2.1-1.2,2.4-4.4,4.8-8.8,7.2-13.2,2.1-3.8,5.2-5.6,9.5-5.6h46.2,0ZM34.2,37.2h29.7v-9.2c0-.8-.5-.8-1-.8h-22.4c-.4,0-1,.4-1.3.8-.9,1.6-1.8,3.2-2.7,4.8-.8,1.4-1.5,2.8-2.4,4.3h.1Z"/>
          </g>
        </g>
      </g>
    </g>
  </g>
</svg>