<?xml version="1.0" encoding="utf-8"?>
<!-- Generator: Adobe Illustrator 15.1.0, SVG Export Plug-In . SVG Version: 6.00 Build 0)  -->
<!DOCTYPE svg PUBLIC "-//W3C//DTD SVG 1.1//EN" "http://www.w3.org/Graphics/SVG/1.1/DTD/svg11.dtd">
<svg version="1.1" id="Layer_1" xmlns="http://www.w3.org/2000/svg" xmlns:xlink="http://www.w3.org/1999/xlink" x="0px" y="0px"
	 width="150px" height="150px" viewBox="0 0 150 150" enable-background="new 0 0 150 150" xml:space="preserve">
<rect display="none" fill="#1D1D1B" width="150" height="150"/>
<g>
	<g>
		<path fill="#FFFFFF" d="M74.501,13.617c33.571,0,60.881,27.317,60.881,60.892c0,33.566-27.311,60.877-60.881,60.877
			c-33.571,0-60.884-27.312-60.884-60.877C13.617,40.934,40.93,13.617,74.501,13.617 M74.501,7C37.227,7,7,37.227,7,74.509
			c0,37.275,30.227,67.495,67.501,67.495c37.278,0,67.499-30.22,67.499-67.495C142,37.227,111.779,7,74.501,7L74.501,7z"/>
	</g>
	<g>
		<polygon fill="#FFFFFF" points="93.391,97.1 71.193,75.925 71.193,36.304 77.812,36.304 77.812,73.093 97.957,92.31 		"/>
	</g>
</g>
</svg>
