<?xml version="1.0" encoding="UTF-8"?>
<svg id="Layer_2" xmlns="http://www.w3.org/2000/svg" viewBox="0 0 150 150">
  <defs>
    <style>
      .cls-1 {
        fill: #fff;
      }
    </style>
  </defs>
  <g id="Layer_1-2" data-name="Layer_1">
    <path class="cls-1" d="M0,94c0-12.35,0-24.71.33-37.24,1.81-4.16,2.71-8.5,4.89-12.05,4.56-7.43,9.26-14.9,14.9-21.51C28.64,13.22,39.25,5.99,52.35,2.91c1.37-.32,2.44-1.91,3.65-2.91,12.35,0,24.71,0,37.24.33,1.07.98,1.89,2.01,2.88,2.22,12.28,2.56,22.37,9.13,31.21,17.58,9.36,8.94,16.53,19.38,19.75,32.21.35,1.38,1.91,2.45,2.91,3.66,0,12.35,0,24.71-.33,37.24-.98,1.07-2.02,1.89-2.22,2.88-2.43,12.36-9.14,22.39-17.6,31.21-8.94,9.32-19.26,16.73-32.21,19.77-1.37.32-2.44,1.91-3.65,2.91-12.35,0-24.71,0-37.24-.33-4.16-1.81-8.5-2.71-12.05-4.89-7.43-4.56-14.88-9.28-21.51-14.89-10.04-8.5-17.08-19.23-20.29-32.24-.34-1.37-1.91-2.44-2.91-3.65M117.36,61c1.44-.67,2.85-1.85,4.31-1.9,5.52-.21,6.61-4.01,7.34-8.3.19-1.1.69-2.17.76-3.28.3-5.45,4.23-11.34-1.09-16.18-6.51-5.92-13.22-11.67-20.19-17.04-3.1-2.39-7.06-1.84-10.71-.29-5.43,2.32-10.77,4.96-16.39,6.67-2.98.91-3.46,2.25-3.42,4.82.1,6.16-.21,12.33.16,18.46.13,2.16,1.22,4.83,2.8,6.24,5.76,5.16,11.84,9.97,17.97,14.67.99.76,3.02.71,4.37.34,4.47-1.23,8.84-2.79,14.08-4.22M22.42,30.05c-1.35,2.6-3.83,5.21-3.81,7.8.03,4.75,1.11,9.63,2.6,14.17.7,2.12.21,5.25,4.15,6.22,7.24,1.79,14.19,4.7,21.33,6.94,1.32.42,3.38.44,4.36-.31,6.27-4.81,12.41-9.78,18.38-14.95,1.3-1.12,2.38-3.22,2.45-4.92.28-6.64.04-13.31.15-19.96.04-2.54-.75-3.53-3.39-4.33-5.8-1.76-11.37-4.28-17.03-6.49-4.14-1.62-8.05-1.86-11.75,1.3-5.56,4.76-11.27,9.35-17.45,14.5M52,92.27c-1.03-4.55-2.45-9.05-2.98-13.66-.63-5.43-4.04-7.22-8.59-8.55-4.72-1.38-9.25-3.44-13.97-4.82-2.77-.81-5.64-1.61-8.03,1.69-3.25,4.49-7.18,8.48-10.57,12.87-.99,1.28-1.99,3.44-1.58,4.78,2.43,8.09,5.05,16.14,8.11,24.01.96,2.46,2.66,4.7,6.59,4.64,4.41-.07,8.85,1.48,13.26,2.46,4.07.9,7.55.73,10.03-3.36,2.09-3.44,4.15-7.08,7.02-9.8,3.46-3.27,3.06-6.08.72-10.25M110.81,116c5.57-.95,11.13-1.97,16.71-2.82,2.78-.42,5.83.46,7.25-3.38,2.54-6.87,5.96-13.46,7.98-20.46.83-2.88,2.58-6.63-.75-9.98-4.17-4.19-7.67-9.03-11.68-13.39-.78-.85-2.75-1.36-3.88-1.03-7.49,2.2-14.91,4.63-22.3,7.14-.87.29-1.81,1.41-2.06,2.33-1.38,4.94-2.78,9.9-3.73,14.93-.92,4.87-4.1,9.88.97,14.62,2.57,2.4,4.31,5.66,6.59,8.39,1.16,1.38,2.69,2.44,4.91,3.65M47.04,120.42c4.24,6.65,8.42,13.33,12.77,19.9.76,1.15,2.23,2.47,3.46,2.57,6.7.56,13.43,1.04,20.15,1.02,5.91-.02,10.23-2.65,11.68-8.97.4-1.75,1.61-3.39,2.71-4.89,6.42-8.77,6.44-8.91-.51-17.38-.5-.61-.8-1.38-1.18-2.09-2.76-5.16-6.19-8.5-12.93-7.74-6.57.74-13.3.22-19.95.13-2.59-.04-4.32.34-5.94,2.98-2.97,4.85-6.81,9.17-10.28,14.47M57.4,68.08c-4.52,3.39-3.03,7.33-1.54,11.71,1.88,5.55,2.98,11.36,4.4,17.01h29.45c1.92-7.34,3.94-14.43,5.53-21.62.35-1.56-.26-4.06-1.38-5.09-4.96-4.59-10.42-8.64-15.39-13.23-2.7-2.5-4.41-2.26-7.05.1-4.25,3.79-8.94,7.09-14.01,11.12M77.43,6c-6.96.05-14.02-.5-20.39,2.54,12.01,9.04,23.96,7.58,37.27-.53-6.07-.77-10.99-1.39-16.88-2.01M46.45,132.96c-2.43-3.95-3.58-9.24-8.75-10.59-4.63-1.21-9.5-1.48-14.97-2.26,8.01,8.67,16.46,15.18,28.21,19.31-1.83-2.74-2.89-4.34-4.49-6.46M121.3,121c-2.06.33-4.14.54-6.16,1.03-2.07.5-4.98.65-5.95,2.04-3.12,4.5-5.5,9.5-8.47,14.85,10.81-3.92,18.83-10.56,25.75-19.12-1.45.39-2.89.78-5.17,1.19M144,66.49c-1.99-7.15-3.98-14.29-6.15-22.06-6.05,10.43-4.74,15.48,6.15,25.96,0-1.08,0-2.08,0-3.9M14,48.59c-.12-.86-.25-1.72-.37-2.58-.62-.1-1.25-.2-1.87-.3-2.21,8.15-4.42,16.3-6.63,24.45,7.17-5.47,13.65-11.08,8.88-21.56Z"/>
  </g>
</svg>