<?xml version="1.0" encoding="UTF-8"?>
<svg xmlns="http://www.w3.org/2000/svg" version="1.1" xmlns:xlink="http://www.w3.org/1999/xlink" viewBox="0 0 113 112">
  <defs>
    <style>
      .cls-1 {
        fill: #fff;
      }

      .cls-2 {
        fill: none;
      }

      .cls-3 {
        clip-path: url(#clippath);
      }
    </style>
    <clipPath id="clippath">
      <rect class="cls-2" x="0" y=".2" width="113.1" height="111.8"/>
    </clipPath>
  </defs>
  <!-- Generator: Adobe Illustrator 28.7.1, SVG Export Plug-In . SVG Version: 1.2.0 Build 142)  -->
  <g>
    <g id="Layer_1">
      <g class="cls-3">
        <g>
          <path class="cls-1" d="M99.4,103.3H13.6c-7.2,0-13.1-5.9-13.1-13.1v-54.2c0-7.2,5.9-13.1,13.1-13.1h85.7c7.2,0,13.1,5.9,13.1,13.1v54.2c0,7.2-5.9,13.1-13.1,13.1ZM13.6,28.8c-3.9,0-7.1,3.2-7.1,7.1v54.2c0,3.9,3.2,7.1,7.1,7.1h85.7c3.9,0,7.1-3.2,7.1-7.1v-54.2c0-3.9-3.2-7.1-7.1-7.1H13.6Z"/>
          <path class="cls-1" d="M29.8,88.5c-8.4,0-15.3-6.9-15.3-15.3s6.9-15.3,15.3-15.3,15.3,6.9,15.3,15.3-6.9,15.3-15.3,15.3ZM29.8,63.9c-5.1,0-9.3,4.2-9.3,9.3s4.2,9.3,9.3,9.3,9.3-4.2,9.3-9.3-4.2-9.3-9.3-9.3Z"/>
          <path class="cls-1" d="M95.8,28.9c-.3,0-.6,0-.9-.1l-44.2-14.1c-1.6-.5-2.5-2.2-1.9-3.8.5-1.6,2.2-2.5,3.8-1.9l44.2,14.1c1.6.5,2.5,2.2,1.9,3.8-.4,1.3-1.6,2.1-2.9,2.1Z"/>
          <path class="cls-1" d="M29.8,49.4c-1.7,0-3-1.3-3-3v-7.2c0-1.7,1.3-3,3-3s3,1.3,3,3v7.2c0,1.7-1.3,3-3,3Z"/>
          <path class="cls-1" d="M109.5,49.7H3.5c-1.7,0-3-1.3-3-3s1.3-3,3-3h105.9c1.7,0,3,1.3,3,3s-1.3,3-3,3Z"/>
          <path class="cls-1" d="M95.2,67.9h-35.5c-1.9,0-3.5-1.6-3.5-3.5s1.6-3.5,3.5-3.5h35.5c1.9,0,3.5,1.6,3.5,3.5s-1.6,3.5-3.5,3.5Z"/>
          <path class="cls-1" d="M95.2,85.5h-35.5c-1.9,0-3.5-1.6-3.5-3.5s1.6-3.5,3.5-3.5h35.5c1.9,0,3.5,1.6,3.5,3.5s-1.6,3.5-3.5,3.5Z"/>
        </g>
      </g>
    </g>
  </g>
</svg>