<?xml version="1.0" encoding="utf-8"?>
<!-- Generator: Adobe Illustrator 15.1.0, SVG Export Plug-In . SVG Version: 6.00 Build 0)  -->
<!DOCTYPE svg PUBLIC "-//W3C//DTD SVG 1.1//EN" "http://www.w3.org/Graphics/SVG/1.1/DTD/svg11.dtd">
<svg version="1.1" id="Layer_1" xmlns="http://www.w3.org/2000/svg" xmlns:xlink="http://www.w3.org/1999/xlink" x="0px" y="0px"
	 width="150px" height="150px" viewBox="0 0 150 150" enable-background="new 0 0 150 150" xml:space="preserve">
<rect display="none" fill="#1D1D1B" width="150" height="150"/>
<g>
	<path fill="#FFFFFF" d="M108.868,106.625l3.3,3.6c9.348-9.289,15.121-22.142,15.121-36.357c0-13.192-4.988-25.213-13.172-34.3
		l-3.495,3.413c7.617,8.509,11.784,19.378,11.784,30.888C122.406,86.241,117.606,97.865,108.868,106.625z"/>
	<path fill="#FFFFFF" d="M24.761,73.867c0,15.029,6.459,28.54,16.759,37.916l3.335-3.563c-0.551-0.5-1.098-1.019-1.623-1.554
		c-8.772-8.76-13.591-20.406-13.591-32.799c0-12.386,4.819-24.037,13.591-32.794c0.64-0.646,1.304-1.267,1.98-1.872l-3.294-3.597
		C31.391,44.991,24.761,58.655,24.761,73.867z"/>
	<path fill="#FFFFFF" d="M120.099,117.955c-0.118,0.124-0.244,0.236-0.36,0.357l3.49,3.813
		c12.521-12.253,20.298-29.342,20.298-48.246c0-17.557-6.707-33.554-17.705-45.558l-3.701,3.609
		c10.497,11.497,16.234,26.285,16.234,41.948C138.354,90.529,131.874,106.183,120.099,117.955z"/>
	<path fill="#FFFFFF" d="M31.954,117.955C20.179,106.183,13.698,90.529,13.698,73.88c0-16.647,6.48-32.302,18.255-44.074
		c0.823-0.824,1.659-1.617,2.51-2.382l-3.482-3.81C17.203,35.969,8.527,53.913,8.527,73.88c0,19.722,8.45,37.461,21.928,49.8
		l3.536-3.778C33.296,119.269,32.62,118.624,31.954,117.955z"/>
	<polygon fill="#FFFFFF" points="79.079,73.943 78.03,72.797 77.042,73.88 77.042,73.88 78.03,74.966 	"/>
	<path fill="#FFFFFF" d="M102.167,88.775c0.06-0.08,0.11-0.173,0.149-0.269c5.23-9.049,5.23-20.208,0-29.249
		c-0.039-0.102-0.09-0.191-0.149-0.273c-3.812-6.419-9.919-11.148-17.078-13.238c-0.074-0.028-0.148-0.055-0.229-0.069
		c-5.168-1.458-10.643-1.458-15.82,0c-0.085,0.012-0.162,0.039-0.227,0.068c-7.172,2.086-13.265,6.82-17.07,13.239
		c-0.08,0.082-0.126,0.172-0.159,0.273c-5.241,9.041-5.241,20.2,0,29.249c0.033,0.096,0.08,0.188,0.159,0.269
		c3.798,6.416,9.893,11.145,17.052,13.235c0.072,0.039,0.149,0.06,0.239,0.069c5.179,1.459,10.657,1.459,15.825,0
		c0.091-0.01,0.17-0.03,0.248-0.069C92.261,99.918,98.355,95.188,102.167,88.775z M77.818,101.425V89.086h11.824
		c-1.29,4.701-3.142,8.61-5.39,11.372C82.149,101.033,79.984,101.363,77.818,101.425z M69.638,100.455
		c-2.25-2.759-4.094-6.665-5.382-11.372h11.825v12.342C73.91,101.357,71.748,101.033,69.638,100.455z M49.397,74.747h11.207
		c0.031,4.242,0.519,8.465,1.445,12.606h-9.134C50.747,83.493,49.539,79.171,49.397,74.747L49.397,74.747z M52.915,60.411h9.134
		c-0.926,4.134-1.414,8.366-1.445,12.606H49.397C49.539,68.59,50.747,64.266,52.915,60.411L52.915,60.411z M76.081,46.338v12.337
		H64.256c1.288-4.697,3.132-8.603,5.382-11.369C71.748,46.73,73.91,46.406,76.081,46.338L76.081,46.338z M84.253,47.309
		c2.248,2.764,4.1,6.67,5.39,11.369H77.818v-12.34C79.984,46.406,82.149,46.73,84.253,47.309z M104.494,73.018h-11.21
		c-0.028-4.241-0.509-8.47-1.435-12.606h9.137C103.152,64.266,104.354,68.59,104.494,73.018L104.494,73.018z M100.986,87.353H91.85
		c0.926-4.135,1.406-8.364,1.435-12.606h11.21C104.354,79.171,103.152,83.495,100.986,87.353L100.986,87.353z M77.816,87.353V74.747
		h13.742c-0.036,4.25-0.531,8.471-1.494,12.606H77.816z M91.559,73.018h-13.74V60.411h12.246
		C91.027,64.542,91.522,68.772,91.559,73.018L91.559,73.018z M76.081,60.411v12.606H62.335c0.039-4.246,0.54-8.475,1.492-12.606
		H76.081z M62.335,74.747h13.746v12.606H63.827C62.875,83.218,62.374,78.996,62.335,74.747z M87.062,99.52
		c1.985-3.233,3.464-6.746,4.358-10.434h8.505c-3.127,4.711-7.62,8.343-12.863,10.431V99.52z M99.925,58.675H91.42
		c-0.895-3.68-2.373-7.195-4.358-10.429C92.305,50.332,96.798,53.971,99.925,58.675z M62.477,58.675h-8.501
		c3.127-4.705,7.611-8.343,12.86-10.427v-0.002 M53.975,89.086h8.501c0.895,3.688,2.366,7.2,4.359,10.434
		C61.586,97.434,57.102,93.797,53.975,89.086z"/>
</g>
</svg>
