<?xml version="1.0" encoding="utf-8"?>
<!-- Generator: Adobe Illustrator 23.0.2, SVG Export Plug-In . SVG Version: 6.00 Build 0)  -->
<svg version="1.1" id="Layer_1" xmlns="http://www.w3.org/2000/svg" xmlns:xlink="http://www.w3.org/1999/xlink" x="0px" y="0px"
	 viewBox="0 0 26 31" style="enable-background:new 0 0 26 31;" xml:space="preserve">
<style type="text/css">
	.st0{fill:#FFFFFF;}
	.st1{fill:none;stroke:#FFFFFF;stroke-width:1.5;stroke-linecap:square;stroke-linejoin:round;stroke-miterlimit:10;}
</style>
<g>
	<g>
		<g>
			<path class="st0" d="M12,9.16c-1.63,0-2.94,1.28-2.94,2.85v7.52c0,1.57,1.32,2.85,2.94,2.85c1.63,0,2.94-1.28,2.94-2.85v-7.52
				C14.94,10.44,13.63,9.16,12,9.16z"/>
		</g>
		<g>
			<path class="st1" d="M18.5,18.9c0,3.59-2.91,6.5-6.5,6.5c-3.59,0-6.5-2.91-6.5-6.5"/>
			<g>
				<line class="st1" x1="12" y1="26.16" x2="12" y2="28.48"/>
				<line class="st1" x1="9.72" y1="28.48" x2="14.28" y2="28.48"/>
			</g>
		</g>
	</g>
	<path class="st1" d="M5.5,12c0-3.59,2.91-6.5,6.5-6.5c3.59,0,6.5,2.91,6.5,6.5"/>
	<path class="st1" d="M1,12C1,5.92,5.92,1,12,1c6.08,0,11,4.92,11,11"/>
</g>
</svg>
