<?xml version="1.0" encoding="utf-8"?>
<!-- Generator: Adobe Illustrator 15.1.0, SVG Export Plug-In . SVG Version: 6.00 Build 0)  -->
<!DOCTYPE svg PUBLIC "-//W3C//DTD SVG 1.1//EN" "http://www.w3.org/Graphics/SVG/1.1/DTD/svg11.dtd">
<svg version="1.1" id="Layer_1" xmlns="http://www.w3.org/2000/svg" xmlns:xlink="http://www.w3.org/1999/xlink" x="0px" y="0px"
	 width="150px" height="150px" viewBox="0 0 150 150" enable-background="new 0 0 150 150" xml:space="preserve">
<rect display="none" fill="#1D1D1B" width="150" height="150"/>
<path fill="#FFFFFF" d="M142.845,136.972L92.94,87.087c8.005-8.725,12.931-20.321,12.931-33.103c0-27.06-21.94-49.003-49.023-49.003
	c-27.067,0-49.003,21.943-49.003,49.003c0,27.09,21.936,49.026,49.003,49.026c11.812,0,22.641-4.175,31.104-11.129l50.001,49.982
	L142.845,136.972z M14.758,53.984c0-23.208,18.883-42.09,42.09-42.09c23.219,0,42.11,18.883,42.11,42.09
	c0,23.221-18.891,42.113-42.11,42.113C33.641,96.097,14.758,77.205,14.758,53.984z"/>
</svg>
