<?xml version="1.0" encoding="utf-8"?>
<!-- Generator: Adobe Illustrator 23.0.2, SVG Export Plug-In . SVG Version: 6.00 Build 0)  -->
<svg version="1.1" id="Layer_1" xmlns="http://www.w3.org/2000/svg" xmlns:xlink="http://www.w3.org/1999/xlink" x="0px" y="0px"
	 viewBox="0 0 47 47" style="enable-background:new 0 0 47 47;" xml:space="preserve">
<style type="text/css">
	.st0{fill:#2672FF;}
	.st1{fill:#FFFFFF;}
</style>
<g>
	<g>
		<rect x="1.5" y="1.5" class="st0" width="44" height="44"/>
		<path class="st1" d="M45,2v43H2V2H45 M46,1H1v45h45V1L46,1z"/>
	</g>
	<rect x="36.09" y="10.67" class="st1" width="1.31" height="10.05"/>
	<rect x="33.47" y="10.67" class="st1" width="1.31" height="1.31"/>
	<rect x="38.7" y="10.67" class="st1" width="1.31" height="1.31"/>
	<polygon class="st1" points="9.48,15.71 5.65,20.73 12.76,20.73 12.76,19.43 8.28,19.43 11.13,15.71 8.28,11.99 12.76,11.98 
		12.76,10.69 5.64,10.69 	"/>
	<path class="st1" d="M22.66,20.73h1.47l0.9-1.75h6.02l0.9,1.75h1.47l-5.38-10.47L22.66,20.73z M28.04,13.12l2.34,4.56H25.7
		L28.04,13.12z"/>
	<polygon class="st1" points="19.02,10.67 15.5,15.64 15.45,15.71 18.97,20.68 19,20.73 20.73,20.73 17.11,15.71 20.62,10.67 	"/>
	<g>
		<path class="st1" d="M7.18,34.18v-5.15l-1.15,0.27l-0.36-1.47l1.99-0.57h1.37v6.93H7.18z"/>
	</g>
	<g>
		<path class="st1" d="M22.63,33.27c-0.58,0.7-1.34,1.05-2.29,1.05c-0.95,0-1.71-0.35-2.28-1.04c-0.57-0.69-0.86-1.54-0.86-2.55
			v-0.02c0-1.01,0.29-1.87,0.88-2.56c0.58-0.7,1.35-1.05,2.29-1.05c0.94,0,1.7,0.35,2.28,1.04c0.58,0.69,0.87,1.54,0.87,2.55v0.02
			C23.5,31.72,23.21,32.57,22.63,33.27z M20.36,32.61c0.38,0,0.68-0.18,0.9-0.53c0.23-0.35,0.34-0.8,0.34-1.36v-0.02
			c0-0.56-0.12-1.01-0.36-1.37c-0.24-0.36-0.54-0.54-0.91-0.54c-0.37,0-0.67,0.18-0.9,0.53c-0.23,0.35-0.35,0.8-0.35,1.36v0.02
			c0,0.56,0.12,1.01,0.36,1.37C19.68,32.43,19.99,32.61,20.36,32.61z"/>
	</g>
	<g>
		<path class="st1" d="M28.97,34.31c-1.21,0-2.18-0.41-2.9-1.23l1.19-1.21c0.52,0.53,1.06,0.79,1.63,0.79
			c0.27,0,0.49-0.06,0.64-0.19c0.16-0.13,0.23-0.3,0.23-0.51v-0.02c0-0.22-0.1-0.4-0.29-0.53c-0.19-0.13-0.47-0.19-0.82-0.19h-0.8
			l-0.27-1l1.57-1.44h-2.61v-1.56h4.92v1.38l-1.63,1.42c0.53,0.11,0.96,0.33,1.28,0.64c0.32,0.32,0.48,0.75,0.48,1.31V32
			c0,0.69-0.24,1.25-0.73,1.68C30.37,34.1,29.74,34.31,28.97,34.31z"/>
	</g>
	<g>
		<path class="st1" d="M24.14,34.18v-1.14h1.14v1.14H24.14z"/>
	</g>
	<g>
		<path class="st1" d="M15.54,33.27c-0.58,0.7-1.34,1.05-2.29,1.05c-0.95,0-1.71-0.35-2.28-1.04c-0.57-0.69-0.86-1.54-0.86-2.55
			v-0.02c0-1.01,0.29-1.87,0.88-2.56c0.58-0.7,1.35-1.05,2.29-1.05c0.94,0,1.7,0.35,2.28,1.04c0.58,0.69,0.87,1.54,0.87,2.55v0.02
			C16.41,31.72,16.12,32.57,15.54,33.27z M13.27,32.61c0.38,0,0.68-0.18,0.91-0.53c0.23-0.35,0.34-0.8,0.34-1.36v-0.02
			c0-0.56-0.12-1.01-0.36-1.37c-0.24-0.36-0.54-0.54-0.91-0.54c-0.37,0-0.67,0.18-0.9,0.53c-0.23,0.35-0.35,0.8-0.35,1.36v0.02
			c0,0.56,0.12,1.01,0.36,1.37C12.59,32.43,12.9,32.61,13.27,32.61z"/>
	</g>
	<rect x="33.04" y="27.24" class="st1" width="7.06" height="7.15"/>
	<polygon class="st0" points="33.85,32.3 33.85,29.54 36.05,29.54 36.05,30.2 34.6,30.2 34.6,30.66 35.91,30.66 35.91,31.3 
		34.61,31.3 34.61,32.3 	"/>
	<polygon class="st0" points="37.11,32.3 36.35,32.3 36.35,29.54 37.19,29.54 37.84,30.6 38.46,29.54 39.29,29.54 39.29,32.3 
		38.55,32.3 38.55,30.7 37.82,31.78 37.12,30.72 	"/>
</g>
</svg>
