<?xml version="1.0" encoding="utf-8"?>
<!-- Generator: Adobe Illustrator 15.1.0, SVG Export Plug-In . SVG Version: 6.00 Build 0)  -->
<!DOCTYPE svg PUBLIC "-//W3C//DTD SVG 1.1//EN" "http://www.w3.org/Graphics/SVG/1.1/DTD/svg11.dtd">
<svg version="1.1" id="Layer_1" xmlns="http://www.w3.org/2000/svg" xmlns:xlink="http://www.w3.org/1999/xlink" x="0px" y="0px"
	 width="150px" height="150px" viewBox="0 0 150 150" enable-background="new 0 0 150 150" xml:space="preserve">
<rect display="none" fill="#1D1D1B" width="150" height="150"/>
<g>
	<path fill="#FFFFFF" d="M73.782,8.033l-38.91,22.466v44.928l38.91,22.466l38.911-22.466V30.499L73.782,8.033z M72.026,92.827
		l-31.89-18.413l31.89-18.41V92.827z M38.375,71.377V34.549l31.897,18.413L38.375,71.377z M109.184,73.403L75.532,92.827V51.952
		L40.136,31.51l33.646-19.426l35.402,20.439V73.403z"/>
	<g>
		<rect x="108.794" y="116.128" fill="#FFFFFF" width="3.471" height="26.882"/>
		<rect x="101.834" y="116.128" fill="#FFFFFF" width="3.479" height="3.511"/>
		<rect x="115.754" y="116.128" fill="#FFFFFF" width="3.475" height="3.511"/>
		<polygon fill="#FFFFFF" points="38.062,129.596 27.871,143.033 46.774,143.033 46.774,139.558 34.876,139.558 42.433,129.596 
			34.876,119.647 46.774,119.642 46.774,116.173 27.855,116.173 		"/>
		<path fill="#FFFFFF" d="M73.105,143.033h3.901l2.396-4.691H95.4l2.386,4.691h3.906l-14.297-28.001L73.105,143.033z
			 M87.396,122.674l6.219,12.189H81.177L87.396,122.674z"/>
		<polygon fill="#FFFFFF" points="63.432,116.128 54.07,129.418 53.94,129.596 63.283,142.903 63.378,143.033 67.63,143.033 
			58.189,129.596 67.685,116.128 		"/>
	</g>
</g>
</svg>
