<?xml version="1.0" encoding="UTF-8"?>
<svg xmlns="http://www.w3.org/2000/svg" version="1.1" xmlns:xlink="http://www.w3.org/1999/xlink" viewBox="0 0 150 150">
  <defs>
    <clipPath id="clippath">
      <rect width="150" height="150" style="fill: none;"/>
    </clipPath>
    <clipPath id="clippath-1">
      <polygon points="57.1 105.7 56.8 150 0 150 0 0 150 0 150 105.3 57.1 105.7" style="fill: none;"/>
    </clipPath>
  </defs>
  <!-- Generator: Adobe Illustrator 28.6.0, SVG Export Plug-In . SVG Version: 1.2.0 Build 709)  -->
  <g>
    <g id="Layer_1">
      <g style="clip-path: url(#clippath);">
        <g style="clip-path: url(#clippath-1);">
          <path d="M.6,79.3c0-2.9,0-5.8,0-8.7,0-.5.2-.9.3-1.4.4-3.2.6-6.4,1.3-9.5,3.8-17.5,12.7-31.9,26.7-43.1C39.2,8.5,51,3.4,64,1.5c2.2-.3,4.4-.6,6.6-.8,2.9,0,5.8,0,8.7,0,.4,0,.7.2,1.1.3,3.2.4,6.4.6,9.5,1.3,17.5,3.7,32.1,12.5,43.1,26.6,14.3,18.1,19.2,38.7,14.7,61.3-3.5,17.7-12.6,32.2-26.8,43.3-18.1,14.1-38.7,18.9-61.1,14.4-17.7-3.5-32.1-12.7-43.3-26.9-8.2-10.3-13.2-22-15.1-35.1-.3-2.1-.6-4.3-.8-6.4ZM77.5,35.6h0c0,4.1,0,8.1,0,12.2,0,.7.4,1.5.9,1.9,6.9,5.6,13.9,11.2,20.9,16.8.5.4,1.4.5,1.9.4,8.4-2.7,16.7-5.5,25.1-8.3.8-.3,1.1-.6,1.3-1.5,1.5-6.7,3.1-13.3,4.7-20,.1-.4,0-1.1-.3-1.5-7.2-10.3-16.5-18.2-27.9-23.6-.4-.2-1.1-.2-1.6,0-8,3.1-15.9,6.3-23.9,9.5-.9.4-1.2.8-1.2,1.8,0,4.1,0,8.1,0,12.2ZM72.5,35.7c0-4.1,0-8.2,0-12.3,0-.8-.2-1.3-1.1-1.6-8.1-3.2-16.1-6.4-24.2-9.5-.5-.2-1.2-.2-1.6,0-11.3,5.3-20.5,13.2-27.7,23.4-.3.4-.4,1.1-.3,1.6,1.5,6.5,3,13,4.5,19.6.2,1.1.7,1.6,1.8,1.9,8.1,2.7,16.3,5.4,24.4,8.1,1,.3,1.7.2,2.5-.4,6.8-5.5,13.7-11,20.6-16.5.8-.6,1.1-1.3,1.1-2.3,0-4,0-7.9,0-11.9ZM41.2,116.8c.2,0,.7-.3.9-.6,4.1-5.4,8.2-10.9,12.3-16.4.3-.4.4-1,.3-1.4-2.1-8.5-4.2-17-6.4-25.5-.1-.5-.6-1.1-1.1-1.2-8.3-2.8-16.7-5.6-25.1-8.3-.4-.1-1.1,0-1.3.3-4.8,5.7-9.6,11.5-14.4,17.3-.3.3-.4.9-.4,1.3,1.1,10.7,4.5,20.6,10.2,29.7.5.8,1.1,1.2,2,1.4,2.4.3,4.8.7,7.2,1.1,5.1.8,10.3,1.6,15.8,2.5ZM108.7,116.8c.4,0,.6,0,.7,0,7.4-1.2,14.9-2.4,22.3-3.5.9-.1,1.5-.6,2-1.4,5.7-9.1,9.1-19,10.2-29.7,0-.4-.2-1-.5-1.4-4.7-5.7-9.4-11.3-14.1-17-.5-.6-.9-.8-1.7-.5-8.2,2.8-16.5,5.5-24.7,8.2-.8.3-1.2.7-1.4,1.5-2.1,8.4-4.2,16.8-6.2,25.3-.1.4,0,1.1.2,1.4,4.1,5.5,8.3,11,12.4,16.4.2.3.6.5.8.6ZM75.1,102.3c-5,0-10.1,0-15.1,0-.6,0-1.4.4-1.7.9-3.9,5.1-7.8,10.4-11.7,15.5-.6.8-.6,1.3,0,2.2,4.5,7,9,14.1,13.5,21.1.4.6,1.2,1.1,1.9,1.2,9.6,1.8,19.1,1.7,28.6-.6.6-.1,1.2-.7,1.5-1.2,4-6.9,7.9-13.8,11.8-20.6.4-.8.4-1.2-.1-1.9-4-5.3-8-10.6-12-15.8-.3-.4-1.1-.8-1.7-.8-5,0-10,0-14.9,0ZM75,53.4c-.5.4-1,.8-1.5,1.1-6.5,5.2-13,10.4-19.5,15.6-.8.6-1,1.2-.8,2.2,2,7.9,4,15.8,5.9,23.7.3,1.2.8,1.4,1.9,1.4,6.2,0,12.5,0,18.7,0,3.5,0,7,0,10.5,0,.3-1,.5-1.9.7-2.8,1.9-7.5,3.8-15,5.6-22.4.1-.5,0-1.3-.4-1.6-7-5.7-14.1-11.3-21.3-17.1ZM53.5,9.2c.1,0,.3.2.4.2,6.8,2.7,13.6,5.4,20.4,8.1.5.2,1.2,0,1.8-.1,5.7-2.2,11.4-4.5,17.1-6.8,1.1-.4,2.1-.9,3.4-1.4-10.8-4.7-33.8-4.6-43,0ZM21.4,118.7c5.8,8.6,25,21.7,31.8,21.8-3.9-6.1-7.7-12.1-11.6-18.1-.2-.4-.8-.6-1.3-.7-3.4-.6-6.9-1.1-10.3-1.7-2.8-.4-5.6-.9-8.7-1.3ZM98.4,140.3c12.2-4.6,22.1-11.5,30.2-21.4-.6,0-.9,0-1.1,0-5.8.9-11.6,1.9-17.4,2.8-.9.1-1.3.5-1.8,1.2-2.9,5-5.7,10.1-8.6,15.1-.4.6-.7,1.3-1.3,2.3ZM144.2,73.8c.9-7.2-4.1-26.7-8.1-31-1.2,5.2-2.4,10.4-3.7,15.5-.2.9,0,1.5.6,2.2,2,2.4,4,4.8,6.1,7.2,1.7,2,3.3,4,5.1,6.1ZM13.9,42.9c-5.4,9.6-8,19.8-8.2,31.1.6-.6.9-1,1.3-1.4,2.8-3.3,5.4-6.7,8.3-9.9,1.9-2.1,2.7-4,1.8-6.9-1.3-4.2-2.1-8.6-3.1-12.9Z" style="fill: #fff;"/>
        </g>
        <g>
          <path d="M62.5,112.7h6.8v24.2h11.9v5.7h-18.7v-29.9Z" style="fill: #d82027;"/>
          <path d="M92,112.7v29.9h-6.8v-29.9h6.8Z" style="fill: #d82027;"/>
          <path d="M104.9,142.6l-9.6-29.9h7.4l3.6,12.7c1,3.6,2,7,2.7,10.7h.1c.8-3.6,1.7-7.1,2.7-10.6l3.8-12.8h7.2l-10.1,29.9h-7.9Z" style="fill: #d82027;"/>
          <path d="M143.9,130h-11v7.1h12.3v5.6h-19.1v-29.9h18.5v5.6h-11.7v6.2h11v5.5Z" style="fill: #d82027;"/>
        </g>
      </g>
    </g>
  </g>
</svg>