<?xml version="1.0" standalone="no"?>
<!DOCTYPE svg PUBLIC "-//W3C//DTD SVG 20010904//EN"
 "http://www.w3.org/TR/2001/REC-SVG-20010904/DTD/svg10.dtd">
<svg version="1.0" xmlns="http://www.w3.org/2000/svg"
 width="160.000000pt" height="160.000000pt" viewBox="0 0 160.000000 160.000000"
 preserveAspectRatio="xMidYMid meet">
<metadata>
Created by potrace 1.11, written by Peter Selinger 2001-2013
</metadata>
<g transform="translate(0.000000,160.000000) scale(0.100000,-0.100000)"
fill="#000000" stroke="none">
<path d="M245 1310 c-8 -9 -15 -32 -15 -51 0 -66 72 -306 108 -364 10 -15 32
-78 32 -92 0 -7 -12 -19 -27 -26 -26 -14 -25 -14 35 -25 64 -11 104 -5 147 25
19 13 19 13 0 13 -11 0 -34 8 -50 19 -26 15 -36 34 -64 125 -19 59 -31 109
-28 113 11 10 109 -37 172 -82 33 -24 86 -72 118 -109 33 -37 63 -63 71 -60 7
3 35 35 62 72 78 107 221 242 257 242 13 0 1 -152 -19 -240 -3 -14 -8 -36 -10
-50 -12 -72 -28 -122 -40 -127 -30 -11 -11 -30 44 -41 58 -11 88 -11 154 3
l38 7 -31 29 c-29 27 -31 33 -26 78 5 41 59 174 77 191 17 15 92 199 107 260
l17 72 -22 18 c-18 15 -28 17 -60 8 -50 -13 -121 -51 -211 -113 -104 -70 -146
-108 -249 -225 l-31 -35 -28 35 c-27 34 -153 161 -183 185 -60 47 -123 85
-216 130 -76 37 -106 40 -129 15z"/>
<path d="M600 453 c0 -29 -3 -34 -12 -25 -35 35 -92 -5 -90 -65 2 -54 23 -71
88 -71 l54 1 0 98 c0 92 -1 99 -20 99 -16 0 -20 -7 -20 -37z m-12 -55 c27 -27
2 -88 -32 -75 -17 7 -26 50 -14 71 11 19 29 21 46 4z"/>
<path d="M680 475 c0 -8 9 -15 20 -15 11 0 20 7 20 15 0 8 -9 15 -20 15 -11 0
-20 -7 -20 -15z"/>
<path d="M1135 393 c1 -90 2 -98 20 -98 18 0 19 8 20 85 1 99 -1 110 -24 110
-15 0 -17 -12 -16 -97z"/>
<path d="M89 431 c-1 -3 -2 -36 -3 -73 -1 -63 1 -68 20 -68 19 0 22 5 20 39
-3 48 9 81 29 81 15 0 16 -6 18 -83 1 -32 4 -37 20 -35 17 2 20 11 22 48 1 51
10 70 31 70 11 0 14 -14 14 -60 0 -53 2 -60 20 -60 18 0 20 7 20 63 0 36 -5
68 -12 75 -15 15 -54 16 -63 2 -4 -6 -12 -7 -18 -3 -15 9 -117 13 -118 4z"/>
<path d="M356 417 c-51 -51 -8 -135 63 -123 39 6 46 11 36 26 -4 6 -18 9 -34
5 -19 -4 -32 -1 -41 10 -11 13 -6 15 40 15 l53 0 -7 31 c-12 59 -69 77 -110
36z m72 -24 c2 -9 -7 -13 -28 -13 -28 0 -31 2 -20 15 15 18 41 16 48 -2z"/>
<path d="M680 365 c0 -68 2 -75 20 -75 18 0 20 7 20 75 0 68 -2 75 -20 75 -18
0 -20 -7 -20 -75z"/>
<path d="M770 425 c-19 -22 3 -44 24 -25 17 13 46 7 46 -9 0 -6 -18 -15 -41
-21 -43 -12 -58 -33 -42 -59 7 -11 26 -16 66 -17 l56 -1 0 59 c-1 38 -6 63
-16 73 -19 20 -77 19 -93 0z m70 -81 c0 -17 -31 -27 -44 -14 -8 8 -7 13 2 19
19 12 42 9 42 -5z"/>
<path d="M963 334 c0 -95 1 -104 18 -104 19 0 23 8 19 47 -1 20 2 22 29 17 54
-11 87 37 70 100 -11 38 -22 44 -89 44 l-46 0 -1 -104z m98 54 c7 -13 11 -25
10 -28 -2 -3 -7 -13 -12 -22 -18 -33 -46 -21 -54 24 -9 45 35 65 56 26z"/>
<path d="M1225 423 c-16 -15 -16 -17 1 -26 13 -7 19 -7 22 1 5 17 39 15 45 -3
4 -10 -4 -16 -28 -21 -40 -7 -68 -35 -59 -58 8 -22 52 -32 76 -17 11 7 18 7
18 1 0 -5 8 -10 18 -10 16 0 18 8 16 60 0 33 -7 66 -14 75 -17 20 -74 19 -95
-2z m65 -80 c0 -15 -27 -29 -37 -20 -3 4 -3 12 0 20 7 18 37 18 37 0z"/>
<path d="M1370 365 c0 -68 2 -75 20 -75 16 0 19 8 22 58 3 49 6 57 23 57 17 0
20 -8 23 -57 3 -49 6 -58 21 -58 24 0 28 14 24 74 -5 72 -32 93 -85 65 -15 -8
-19 -8 -14 0 4 7 -1 11 -13 11 -19 0 -21 -6 -21 -75z"/>
</g>
</svg>
