<?xml version="1.0" encoding="UTF-8"?>
<svg id="Layer_2" data-name="Layer 2" xmlns="http://www.w3.org/2000/svg" viewBox="0 0 734.79 738.48">
  <defs>
    <style>
      .cls-1 {
        fill-rule: evenodd;
      }
    </style>
  </defs>
  <g id="Layer_1" data-name="Layer 1">
    <path class="cls-1" d="M330.89,15.83c18.87-20.16,50.51-21.2,70.67-2.33.8.75,1.58,1.53,2.33,2.33l317.25,338.5c30,31.9,7.3,84.15-36.5,84.15h-142.25v50c0,27.61-22.39,50-50,50h-250c-27.61,0-50-22.39-50-50v-50H50.09c-43.7,0-66.4-52.25-36.5-84.2L330.89,15.83ZM684.69,388.48L367.39,50.03,50.09,388.48h142.3c27.61,0,50,22.39,50,50v50h250v-50c0-27.61,22.39-50,50-50h142.3ZM192.39,638.48c0-27.61,22.39-50,50-50h250c27.61,0,50,22.39,50,50v50c0,27.61-22.39,50-50,50h-250c-27.61,0-50-22.39-50-50v-50ZM492.39,638.48h-250v50h250v-50Z"/>
    <rect x="223.9" y="625.56" width="284.94" height="75.06"/>
  </g>
</svg>